<?xml version="1.0" encoding="UTF-8"?>
<svg enable-background="new 0 0 300 102.5" version="1.1" viewBox="0 0 300 102.5" xml:space="preserve" xmlns="http://www.w3.org/2000/svg">
<style type="text/css">
	.st0{fill:#FFFFFF;}
</style>
<g transform="translate(-214.79 -504.81)">
	<g transform="matrix(3.7307 0 0 -3.7307 316.19 556.02)">
		<path class="st0" d="m0 0c0-7.4-6-13.5-13.5-13.5-7.4 0-13.5 6-13.5 13.5s6 13.5 13.5 13.5 13.5-6.1 13.5-13.5"/>
	</g>
	<g transform="matrix(3.7307 0 0 -3.7307 224.94 565.73)">
		<path d="m0 0l0.1 0.2 0.1 0.1v0.1c0.3 0.6 0.6 1.3 1 1.9 0 0.1 0.1 0.2 0.2 0.3h-1.6l0.2 0.9c1.3 0.4 3.6 1.1 5.7 3.2h0.1 1.1l-1.5-3.2h2.3l-0.4-0.9h-2.3s-1.1-2.2-1.5-3.7c-0.3-1.7 0-3 1.5-3.5 1-0.3 2.2-0.2 3.4 0.1 3 0.9 6.2 3 8.5 5.7 3.9 4.5 3.9 9.1 0.2 10.2-2.4 0.8-5.8-0.1-9-2 3.9 2.5 8.2 3.7 11.2 2.8 0.6-0.2 1-0.4 1.5-0.7-2.5 2.7-6 4.4-10 4.4-7.2 0.1-13.3-5.9-13.3-13.3 0-2.7 0.8-5.3 2.2-7.4-0.5 1.3-0.4 2.9 0.3 4.8"/>
	</g>
	<g transform="matrix(3.7307 0 0 -3.7307 308.56 529.51)">
		<path d="m0 0c0.9-2.4-0.2-6.1-3.3-9.7-4.7-5.4-12-8.7-16.5-7.3-0.5 0.2-1 0.4-1.4 0.7 2.5-2.6 5.9-4.3 9.8-4.3 7.4 0 13.4 6 13.4 13.5 0 2.6-0.7 5-2 7.1"/>
	</g>
</g>
</svg>
