<?xml version="1.0" encoding="UTF-8"?>
<svg enable-background="new 0 0 200 40" version="1.1" viewBox="0 0 200 40" xml:space="preserve" xmlns="http://www.w3.org/2000/svg">
<style type="text/css">
	.st0{fill:#708C6E;}
	.st1{fill:none;stroke:#7C7B75;stroke-width:0.8857;stroke-miterlimit:10;}
	.st2{fill:none;stroke:#7C7B75;stroke-width:0.5905;stroke-miterlimit:10;}
	.st3{fill:none;stroke:#7C7B75;stroke-width:0.2952;stroke-miterlimit:10;}
	.st4{fill:#969591;}
	.st5{fill:#7C7B75;}
	.st6{fill:#231F20;}
</style>
	<path class="st0" d="m50 10.7l-3.3 18.6c0 0.3-0.2 0.4-0.4 0.4h-2.4c-0.3 0-0.4-0.1-0.4-0.4l-3.3-18.6c0-0.3 0.1-0.4 0.3-0.4h3c0.2 0 0.4 0.1 0.4 0.4l1.1 11.7h0.1l1.2-11.7c0-0.3 0.2-0.4 0.4-0.4h3c0.2 0 0.5 0.1 0.3 0.4z"/>
	<path class="st0" d="m54.3 29.3c0 0.3-0.1 0.4-0.4 0.4h-2.5c-0.3 0-0.4-0.1-0.4-0.4v-15.8c0-0.3 0.1-0.4 0.4-0.4h2.5c0.3 0 0.4 0.1 0.4 0.4v15.8z"/>
	<path class="st0" d="m59.3 29.3c0 0.3-0.1 0.4-0.4 0.4h-2.5c-0.2 0-0.4-0.1-0.4-0.4v-15.8c0-0.3 0.1-0.4 0.4-0.4h4.2c0.5 0 0.9 0.1 1.4 0.3 0.4 0.2 0.8 0.4 1.1 0.7s0.6 0.7 0.7 1.1c0.2 0.4 0.3 0.9 0.3 1.4v3.4c0 0.7-0.2 1.3-0.6 1.8s-0.9 1-1.5 1.3l2.6 6.2c0.1 0.3 0 0.4-0.3 0.4h-2.5c-0.1 0-0.2 0-0.3-0.1s-0.2-0.2-0.2-0.3l-2-5.1v5.1zm0-8.8h0.9c0.2 0 0.3-0.1 0.5-0.2 0.1-0.1 0.2-0.3 0.2-0.5v-3.1c0-0.2-0.1-0.3-0.2-0.5-0.1-0.1-0.3-0.2-0.5-0.2h-0.9v4.5z"/>
	<path class="st0" d="m73.4 13.5v2.5c0 0.3-0.1 0.4-0.4 0.4h-2v13c0 0.3-0.1 0.4-0.4 0.4h-2.5c-0.1 0-0.2 0-0.3-0.1s-0.1-0.2-0.1-0.3v-13h-1.9c-0.3 0-0.4-0.1-0.4-0.4v-2.5c0-0.3 0.1-0.4 0.4-0.4h7.1c0.4 0 0.5 0.1 0.5 0.4z"/>
	<path class="st0" d="m82.8 13.5v12.9c0 0.5-0.1 0.9-0.3 1.4-0.2 0.4-0.4 0.8-0.7 1.1s-0.7 0.6-1.1 0.7c-0.4 0.2-0.9 0.3-1.4 0.3h-1c-0.5 0-0.9-0.1-1.4-0.3-0.4-0.2-0.8-0.4-1.1-0.7s-0.6-0.7-0.7-1.1c-0.2-0.4-0.3-0.9-0.3-1.4v-12.9c0-0.3 0.1-0.4 0.4-0.4h2.5c0.3 0 0.4 0.1 0.4 0.4v12.8c0 0.2 0.1 0.3 0.2 0.5 0.1 0.1 0.3 0.2 0.5 0.2h0.2c0.2 0 0.3-0.1 0.5-0.2 0.1-0.1 0.2-0.3 0.2-0.5v-12.8c0-0.3 0.1-0.4 0.4-0.4h2.5c0.2 0 0.2 0.1 0.2 0.4z"/>
	<path class="st0" d="m92.7 29.3c0 0.3-0.1 0.4-0.3 0.4h-2.5c-0.2 0-0.4-0.1-0.4-0.4l-0.2-2.7h-1.7l-0.2 2.7c0 0.3-0.2 0.4-0.4 0.4h-2.6c-0.3 0-0.4-0.1-0.3-0.4l2.1-15.8c0-0.3 0.2-0.4 0.4-0.4h3.7c0.3 0 0.4 0.1 0.4 0.4l2 15.8zm-3.8-5.8l-0.5-6.1h-0.2l-0.5 6.1h1.2z"/>
	<path class="st0" d="m101.2 26.8v2.5c0 0.3-0.1 0.4-0.4 0.4h-6.3c-0.3 0-0.4-0.1-0.4-0.4v-15.8c0-0.3 0.1-0.4 0.4-0.4h2.5c0.3 0 0.4 0.1 0.4 0.4v13h3.4c0.4-0.1 0.4 0.1 0.4 0.3z"/>
	<path class="st0" d="m114.2 10.7v2.5c0 0.3-0.1 0.4-0.4 0.4h-2v15.7c0 0.3-0.1 0.4-0.4 0.4h-2.5c-0.1 0-0.2 0-0.3-0.1s-0.1-0.2-0.1-0.3v-15.8h-1.9c-0.3 0-0.4-0.1-0.4-0.4v-2.5c0-0.3 0.1-0.4 0.4-0.4h7.1c0.3 0.1 0.5 0.2 0.5 0.5z"/>
	<path class="st0" d="m123.5 13.5v12.9c0 0.5-0.1 0.9-0.3 1.4-0.2 0.4-0.4 0.8-0.7 1.1s-0.7 0.6-1.1 0.7c-0.4 0.2-0.9 0.3-1.4 0.3h-1.1c-0.5 0-0.9-0.1-1.4-0.3-0.4-0.2-0.8-0.4-1.1-0.7s-0.6-0.7-0.7-1.1c-0.2-0.4-0.3-0.9-0.3-1.4v-12.9c0-0.3 0.1-0.4 0.4-0.4h2.5c0.3 0 0.4 0.1 0.4 0.4v12.8c0 0.2 0.1 0.3 0.2 0.5 0.1 0.1 0.3 0.2 0.5 0.2h0.2c0.2 0 0.3-0.1 0.5-0.2 0.1-0.1 0.2-0.3 0.2-0.5v-12.8c0-0.3 0.1-0.4 0.4-0.4h2.5c0.3 0 0.3 0.1 0.3 0.4z"/>
	<path class="st0" d="m134 13.5v15.8c0 0.3-0.1 0.4-0.4 0.4h-1.8c-0.1 0-0.2 0-0.3-0.1s-0.2-0.2-0.2-0.2l-2.9-7.2v7.2c0 0.3-0.1 0.4-0.4 0.4h-2.5c-0.3 0-0.4-0.1-0.4-0.4v-15.9c0-0.3 0.1-0.4 0.4-0.4h1.8c0.1 0 0.2 0 0.3 0.1s0.2 0.2 0.2 0.2l2.9 8.1v-8c0-0.3 0.1-0.4 0.4-0.4h2.5c0.4 0 0.4 0.1 0.4 0.4z"/>
	<path class="st0" d="m142.5 26.8v2.5c0 0.3-0.1 0.4-0.4 0.4h-6c-0.3 0-0.4-0.1-0.4-0.4v-15.8c0-0.3 0.1-0.4 0.4-0.4h6c0.3 0 0.4 0.1 0.4 0.4v2.5c0 0.3-0.1 0.4-0.4 0.4h-3.1v3.2h2.7c0.3 0 0.4 0.1 0.4 0.4v2.5c0 0.3-0.1 0.4-0.4 0.4h-2.7v3.7h3.2c0.3-0.2 0.3 0 0.3 0.2z"/>
	<path class="st0" d="m152.1 10.7v15.7c0 0.5-0.1 0.9-0.3 1.4-0.2 0.4-0.4 0.8-0.7 1.1s-0.7 0.6-1.1 0.7c-0.4 0.2-0.9 0.3-1.4 0.3h-1.1c-0.5 0-0.9-0.1-1.4-0.3-0.4-0.2-0.8-0.4-1.1-0.7s-0.6-0.7-0.7-1.1c-0.2-0.4-0.3-0.9-0.3-1.4v-15.7c0-0.3 0.1-0.4 0.4-0.4h2.5c0.3 0 0.4 0.1 0.4 0.4v15.6c0 0.2 0.1 0.3 0.2 0.5 0.1 0.1 0.3 0.2 0.5 0.2h0.2c0.2 0 0.3-0.1 0.5-0.2 0.1-0.1 0.2-0.3 0.2-0.5v-15.6c0-0.3 0.1-0.4 0.4-0.4h2.5c0.2 0 0.3 0.1 0.3 0.4z"/>
	<path class="st0" d="m158.4 13.1c0.5 0 0.9 0.1 1.4 0.3 0.4 0.2 0.8 0.4 1.1 0.7s0.6 0.7 0.7 1.1c0.2 0.4 0.3 0.9 0.3 1.4v3.7c0 0.5-0.1 0.9-0.3 1.4-0.2 0.4-0.4 0.8-0.7 1.1s-0.7 0.6-1.1 0.7c-0.4 0.2-0.9 0.3-1.4 0.3h-1.4v5.6c0 0.3-0.1 0.4-0.4 0.4h-2.5c-0.3 0-0.4-0.1-0.4-0.4v-15.9c0-0.3 0.1-0.4 0.4-0.4h4.3zm0.1 3.6c0-0.2-0.1-0.3-0.2-0.5-0.1-0.1-0.3-0.2-0.5-0.2h-0.8v4.7h0.9c0.2 0 0.3-0.1 0.5-0.2 0.1-0.1 0.2-0.3 0.2-0.5l-0.1-3.3z"/>
<line class="st1" x1="12.9" x2="20.7" y1="32.1" y2="19.7"/>
	<line class="st2" x1="12.9" x2="3.2" y1="32.1" y2="16.5"/>
	<line class="st1" x1="1.2" x2=".8" y1="13.3" y2="12.6"/>
	<line class="st3" x1="4" x2="1.2" y1="17.9" y2="13.3"/>
	<line class="st1" x1="12.9" x2="5.2" y1="32.1" y2="19.7"/>
<line class="st2" x1="12.9" x2="25.6" y1="32.1" y2="11.8"/>
<line class="st1" x1="29.8" x2="30.2" y1="5.4" y2="4.6"/>
<line class="st3" x1="25.6" x2="29.8" y1="11.8" y2="5.4"/>
<path class="st4" d="m18.3 33.2c0 0.9-2.4 1.6-5.4 1.6s-5.4-0.7-5.4-1.6v-1c0 0.9 2.4 1.6 5.4 1.6s5.4-0.7 5.4-1.6v1z"/>
<ellipse class="st5" cx="12.9" cy="32.1" rx="5.4" ry="1.6"/>
<path class="st6" d="m14.8 34"/>
<path class="st4" d="m15.9 30.2c0 1.7-1.3 2.5-3 2.5s-3-0.9-3-2.5c0-1.7 1.3-3 3-3s3 1.3 3 3z"/>
<path class="st5" d="m15.3 29.6c0 1.3-1.1 2-2.4 2s-2.4-0.7-2.4-2 1.1-2.4 2.4-2.4c1.4 0 2.4 1.1 2.4 2.4z"/>
</svg>
