<?xml version="1.0" encoding="UTF-8"?>
<svg enable-background="new 0 0 2000 2008.3" version="1.1" viewBox="0 0 2000 2008.3" xml:space="preserve" xmlns="http://www.w3.org/2000/svg">
<style type="text/css">
	.st0{fill:#000000;}
	.st1{fill:#FFFFFF;}
</style>
<path class="st0" d="M323.1,0H1677c178.4,0,323.1,144.6,323.1,323.1v1362.2c0,178.4-144.6,323.1-323.1,323.1H323.1  C144.7,2008.4,0,1863.7,0,1685.3V323.1C0,144.7,144.7,0,323.1,0z"/>
<g transform="scale(1.0052 .99483)">
	<path class="st1" d="m1009.9 869.1c50.8 0 89.3-11.2 115.6-33.5 26.2-22.3 39.4-55.3 39.4-98.8 0-43-13.1-75.7-39.4-98-26.2-22.9-64.8-34.3-115.6-34.3h-178.4v264.7l178.4-0.1m10.9 547c64.8 0 113.4-13.7 145.7-41 32.9-27.4 49.4-68.7 49.4-124 0-54.2-16.2-94.6-48.6-121.4-32.4-27.4-81.2-41-146.6-41h-189.2v327.5l189.3-0.1m299.8-449.8c69.2 20.1 122.8 57.2 160.8 111.4s57 120.6 57 199.3c0 120.6-40.8 210.5-122.3 269.7s-205.5 88.8-371.9 88.8h-535.2v-1250.5h484.1c173.6 0 299.3 26.2 376.9 78.7 78.2 52.5 117.3 136.5 117.3 252.1 0 60.9-14.2 112.8-42.7 155.8-28.5 42.5-69.8 74-124 94.7"/>
</g>
</svg>
