<?xml version="1.0" encoding="UTF-8"?>
<svg enable-background="new 0 0 300 159.1" version="1.1" viewBox="0 0 300 159.1" xml:space="preserve" xmlns="http://www.w3.org/2000/svg">
<g transform="translate(-446.86 -442.59)">
	<g transform="matrix(1.3796 0 0 -1.3796 745.86 492.31)">
		<path d="m0 0c0 2.6-2.1 4.7-4.7 4.7s-4.7-2.1-4.7-4.7v-9.9c0-2.6 2.1-4.7 4.7-4.7s4.7 2.1 4.7 4.7v9.9zm-25.8 12.9c0 2.6-2.1 4.7-4.7 4.7s-4.7-2.1-4.7-4.7v-22.8c0-2.6 2.1-4.7 4.7-4.7s4.7 2.1 4.7 4.7v22.8zm-25.8 17.7c0 2.6-2.1 4.7-4.7 4.7s-4.7-2.1-4.7-4.7v-49.8c0-2.6 2.1-4.7 4.7-4.7s4.7 2.1 4.7 4.7v49.8zm-25.9-17.7c0 2.6-2.1 4.7-4.7 4.7s-4.7-2.1-4.7-4.7v-22.8c0-2.6 2.1-4.7 4.7-4.7s4.7 2.1 4.7 4.7v22.8zm-25.8-12.9c0 2.6-2.1 4.7-4.7 4.7s-4.7-2.1-4.7-4.7v-9.9c0-2.6 2.1-4.7 4.7-4.7s4.7 2.1 4.7 4.7v9.9zm-25.8 12.9c0 2.6-2.1 4.7-4.7 4.7s-4.7-2.1-4.7-4.7v-22.8c0-2.6 2.1-4.7 4.7-4.7s4.7 2.1 4.7 4.7v22.8zm-25.8 17.7c0 2.6-2.1 4.7-4.7 4.7s-4.7-2.1-4.7-4.7v-49.8c0-2.6 2.1-4.7 4.7-4.7s4.7 2.1 4.7 4.7v49.8zm-25.9-17.7c0 2.6-2.1 4.7-4.7 4.7s-4.7-2.1-4.7-4.7v-22.8c0-2.6 2.1-4.7 4.7-4.7s4.7 2.1 4.7 4.7v22.8zm-25.8-12.9c0 2.6-2.1 4.7-4.7 4.7s-4.7-2.1-4.7-4.7v-9.9c0-2.6 2.1-4.7 4.7-4.7s4.7 2.1 4.7 4.7v9.9zm97.1-40.9c-0.3 0.1-4.6 1.2-9.2 1.2-8.7 0-14-4.7-14-11.7 0-6.2 4.4-9.3 9.7-11 0.6-0.2 1.4-0.5 2-0.7 2.3-0.7 4.2-1.8 4.2-3.7 0-2.1-2.2-3.5-6.9-3.5-4.1 0-8.1 1.2-8.9 1.4v-8.6c0.5-0.1 5.2-1 10.2-1 7.2 0 15.5 3.2 15.5 12.6 0 4.6-2.8 8.8-8.9 10.7l-2.6 0.8c-1.6 0.5-4.3 1.3-4.3 3.6 0 1.8 2.1 3.1 5.9 3.1 3.3 0 7.3-1.1 7.4-1.1l-0.1 7.9zm80-18.2c0-5.5-4.2-9.9-9.8-9.9s-9.8 4.4-9.8 9.9 4.2 9.9 9.8 9.9 9.8-4.4 9.8-9.9m-9.8 19.4c-11.5 0-19.8-8.7-19.8-19.4s8.3-19.4 19.8-19.4 19.8 8.7 19.8 19.4c0.1 10.7-8.2 19.4-19.8 19.4m-128.6-1.3c-0.9 0.3-4.2 1.3-8.6 1.3-11.5 0-20-8.2-20-19.4 0-12.1 9.3-19.4 20-19.4 4.2 0 7.5 1 8.6 1.3v10.1c-0.4-0.2-3.5-2-8-2-6.3 0-10.4 4.4-10.4 10 0 5.7 4.2 10 10.4 10 4.5 0 7.6-1.8 8-2v10.1zm98.8 0c-0.9 0.3-4.2 1.3-8.6 1.3-11.5 0-20-8.2-20-19.4 0-12.1 9.4-19.4 20-19.4 4.2 0 7.4 1 8.6 1.3v10.1c-0.4-0.2-3.5-2-8-2-6.3 0-10.4 4.4-10.4 10 0 5.7 4.2 10 10.4 10 4.5 0 7.6-1.8 8-2v10.1zm-76.3-36.9h-9.5v37.5h9.5v-37.5z"/>
	</g>
</g>
</svg>
