<?xml version="1.0" encoding="UTF-8"?>
<svg enable-background="new 0 0 42 42" version="1.1" viewBox="0 0 42 42" xml:space="preserve" xmlns="http://www.w3.org/2000/svg">
<path d="m23.1 14v-0.3h-1.1c-0.3 0-0.5 0.1-0.7 0.2s-0.2 0.3-0.2 0.5 0.1 0.3 0.2 0.4c0.2 0.2 0.4 0.2 0.7 0.2 0.2 0 0.3 0 0.5-0.1s0.3-0.1 0.4-0.2 0.2-0.2 0.2-0.3v-0.4zm-2.1-13.8c-11.6 0-20.8 9.2-20.8 20.8s9.2 20.8 20.8 20.8 20.8-9.2 20.8-20.8-9.2-20.8-20.8-20.8zm4 12.3c0.1-0.3 0.2-0.5 0.4-0.7s0.4-0.3 0.6-0.5 0.5-0.2 0.8-0.2 0.5 0 0.8 0.1l0.6 0.3s0.3 0.3 0.4 0.5 0.1 0.4 0.2 0.6h-0.8c0-0.1-0.1-0.2-0.1-0.3s-0.1-0.2-0.2-0.3-0.2-0.1-0.3-0.2c-0.1 0-0.3-0.1-0.4-0.1-0.2 0-0.3 0-0.5 0.1-0.1 0.1-0.3 0.2-0.4 0.3s-0.2 0.3-0.2 0.5c-0.1 0.2-0.1 0.4-0.1 0.6s0 0.4 0.1 0.6 0.1 0.3 0.2 0.5c0.1 0.1 0.2 0.2 0.4 0.3s0.3 0.1 0.5 0.1c0.3 0 0.5-0.1 0.7-0.2s0.3-0.3 0.4-0.6h0.8c0 0.2-0.1 0.4-0.2 0.6s-0.2 0.3-0.4 0.5l-0.6 0.3s-0.5 0.1-0.7 0.1c-0.3 0-0.6-0.1-0.8-0.2-0.3-0.1-0.5-0.3-0.6-0.4s-0.3-0.4-0.4-0.7-0.1-0.6-0.1-0.9c-0.2-0.1-0.2-0.4-0.1-0.7zm-11.8-1.2h0.8v0.7c0.1-0.1 0.1-0.2 0.2-0.3s0.2-0.2 0.3-0.2c0.1-0.1 0.2-0.1 0.4-0.2 0.1 0 0.3-0.1 0.4-0.1 0.3 0 0.6 0.1 0.8 0.2s0.4 0.4 0.4 0.6c0.1-0.1 0.1-0.2 0.2-0.4s0.2-0.2 0.3-0.3 0.2-0.1 0.4-0.2 0.3-0.1 0.4-0.1c0.2 0 0.4 0 0.6 0.1s0.3 0.2 0.5 0.3 0.2 0.3 0.3 0.5 0.1 0.4 0.1 0.6v3h-0.9v-2.8c0-0.3-0.1-0.5-0.2-0.7s-0.4-0.2-0.6-0.2c-0.1 0-0.3 0-0.4 0.1-0.1 0-0.2 0.1-0.3 0.2s-0.1 0.2-0.2 0.3c0 0.1-0.1 0.2-0.1 0.4v2.7h-0.9v-2.8c0-0.1 0-0.2-0.1-0.3s-0.1-0.2-0.2-0.3-0.2-0.1-0.3-0.2c0.1 0.1 0 0.1-0.1 0.1s-0.3 0-0.4 0.1-0.2 0.1-0.3 0.2-0.1 0.2-0.2 0.3c0 0.1-0.1 0.3-0.1 0.4v2.7h-0.8v-4.4zm1.9 20.9c-3.8 0-6.2-2.7-6.2-6.9s2.4-6.9 6.2-6.9 6.2 2.7 6.2 6.9c0 4.3-2.4 6.9-6.2 6.9zm7-16.5c-0.1 0-0.3 0.1-0.4 0.1-0.2 0-0.4 0-0.6-0.1s-0.3-0.1-0.5-0.3-0.2-0.2-0.3-0.4-0.1-0.3-0.1-0.5c0-0.4 0.1-0.7 0.4-0.9s0.7-0.3 1.2-0.4l1.2-0.1v-0.3c0-0.3-0.1-0.4-0.2-0.6s-0.3-0.2-0.6-0.2h-0.3c-0.1 0-0.2 0.1-0.3 0.1s-0.1 0.1-0.2 0.2-0.1 0.2-0.1 0.3h-0.8c0-0.2 0.1-0.4 0.1-0.5s0.2-0.3 0.4-0.4 0.3-0.2 0.5-0.3 0.4-0.1 0.7-0.1 0.5 0 0.7 0.1 0.4 0.2 0.6 0.3 0.3 0.3 0.4 0.5 0.1 0.4 0.1 0.6v3h-0.8v-0.7c-0.2-0.1-0.2 0.1-0.3 0.2s-0.2 0.2-0.3 0.2c-0.2 0.1-0.3 0.1-0.5 0.2zm5.6 16.5c-2.9 0-4.9-1.5-5-3.9h1.9c0.1 1.4 1.5 2.3 3.3 2.3 1.7 0 3-0.9 3-2.1 0-1.1-0.8-1.7-2.5-2.2l-1.7-0.4c-2.5-0.6-3.6-1.7-3.6-3.6 0-2.3 2-3.8 4.8-3.8s4.7 1.6 4.8 3.9h-1.9c-0.1-1.4-1.2-2.2-2.9-2.2s-2.8 0.9-2.8 2.1c0 1 0.7 1.5 2.5 2l1.4 0.4c2.8 0.7 3.9 1.8 3.9 3.7-0.2 2.3-2.1 3.8-5.2 3.8zm-12.6-12.1c-2.6 0-4.3 2-4.3 5.2s1.6 5.2 4.3 5.2c2.6 0 4.3-2 4.3-5.2-0.1-3.2-1.7-5.2-4.3-5.2z"/>
</svg>
